# xmcd
#
# Track frame offsets:
#	182
#	20435
#	38700
#	53880
#
# Disc length: 1068 seconds
#
# Revision: 1
# Processed by: cddbd v1.4PL0 Copyright (c) Steve Scherf et al.
# Submitted via: audiograbber 1.82.02
#
DISCID=29042a04
DTITLE=Boyz II Men - 4 Seasons of Loneliness
DYEAR=1997
DGENRE=R&B
TTITLE0=4 Seasons of Loneliness (Radio Edit)
TTITLE1=Vibin'
TTITLE2=Water Runs Dry
TTITLE3=End of the Road
EXTD=
EXTT0=
EXTT1=
EXTT2=
EXTT3=
PLAYORDER=
